<svg version="1.1" id="Layer_1" xmlns="http://www.w3.org/2000/svg" xmlns:xlink="http://www.w3.org/1999/xlink" x="0px" y="0px"
	 width="100%" viewBox="0 0 1024 544" enable-background="new 0 0 1024 544" xml:space="preserve">
<path fill="#c4530f" opacity="1.000000" stroke="none" 
	d="
M390.779816,295.426880 
	C383.479614,297.043793 376.484314,296.165283 369.519592,296.107330 
	C367.057953,296.086884 365.259094,294.365814 363.722717,292.542084 
	C355.274261,282.513306 353.343842,270.476288 353.225647,257.937439 
	C353.200165,255.236588 354.782867,253.691086 357.691925,253.696335 
	C371.687775,253.721634 385.683777,253.693268 399.679596,253.728806 
	C400.648804,253.731262 402.310059,253.854599 402.478790,254.333847 
	C404.184753,259.179993 409.174377,258.393829 412.496246,260.396271 
	C418.154266,263.806946 419.715088,270.624451 416.191650,277.034760 
	C415.407318,278.461639 414.429321,279.782074 413.565674,281.112732 
	C419.909729,286.997192 427.963776,288.458496 434.908447,285.215363 
	C437.221130,284.135315 438.504639,282.635437 438.706696,279.917969 
	C440.680420,253.372650 442.733124,226.833115 444.811493,200.295700 
	C445.720673,188.686798 446.600037,177.072632 447.744812,165.485748 
	C449.379547,148.940079 466.682068,136.519653 484.610474,138.963547 
	C529.777405,145.120422 574.934631,151.348145 620.097900,157.532043 
	C623.394653,157.983475 626.705566,158.337494 630.014954,158.689575 
	C634.083191,159.122391 635.953552,161.404831 635.637390,165.421036 
	C634.305115,182.340225 632.942261,199.257004 631.576050,216.173508 
	C630.170044,233.583405 628.722900,250.990036 627.344788,268.402130 
	C626.872253,274.372375 626.646667,280.362946 626.125854,286.328308 
	C625.864807,289.319031 626.925110,291.291687 629.319031,293.083527 
	C638.791626,300.173553 644.435303,309.802277 647.067078,321.210846 
	C647.662231,323.790955 648.746155,325.720703 650.699829,327.495117 
	C654.922424,331.330475 656.552429,336.382721 656.096008,341.944580 
	C655.592224,348.083923 651.317200,352.515350 645.801880,353.178894 
	C640.998474,353.756805 637.914795,351.427765 635.280701,345.232513 
	C627.656067,344.485382 626.106140,341.071960 630.390625,334.441895 
	C630.751465,333.883575 631.078430,333.225067 631.594971,332.857391 
	C639.142090,327.484955 636.386353,321.160065 633.274414,314.829987 
	C631.373718,310.963867 629.246948,307.248657 624.907654,304.179626 
	C624.346558,308.928009 623.741882,312.956909 623.415039,317.008240 
	C622.291260,330.936066 621.245972,344.870392 620.208374,358.805023 
	C619.678040,365.927826 617.735718,367.548340 610.740845,366.524231 
	C604.478760,365.607452 598.239807,364.290588 592.688171,369.073242 
	C589.975891,371.409851 587.504761,373.540741 587.120361,377.492676 
	C586.753296,381.267242 584.225647,382.994843 580.430481,382.456940 
	C574.502991,381.616821 568.590515,380.671478 562.671143,379.773895 
	C560.596863,379.459351 558.516602,378.736847 556.034058,379.894897 
	C557.595154,383.405334 560.466431,385.282074 563.472229,387.022156 
	C569.051758,390.252167 575.212952,391.650330 581.485535,392.631866 
	C585.965759,393.332916 587.997314,395.870575 587.169495,400.292511 
	C585.707886,408.100006 582.269287,414.788849 575.413452,419.273926 
	C572.169006,421.396454 568.546936,422.669647 565.254028,419.840332 
	C561.949341,417.000977 561.199951,413.161926 562.667358,408.908325 
	C563.603699,406.194183 565.472412,404.076355 567.062256,401.903961 
	C565.817444,400.130341 564.094299,399.835114 562.590210,399.222809 
	C553.327820,395.452454 546.525574,389.229828 543.160339,379.655151 
	C542.409302,377.518188 541.228027,376.411499 538.959167,376.047791 
	C527.463806,374.204803 515.983215,372.269196 504.505188,370.320068 
	C501.378296,369.789062 499.208160,371.020752 497.053131,373.258026 
	C487.797791,382.866821 482.149231,394.417633 478.314636,407.005371 
	C475.974762,414.686371 474.850281,415.337830 467.293579,412.771484 
	C460.773132,410.556976 454.627380,407.546936 449.751709,402.545349 
	C445.336151,398.015686 446.249146,393.374084 451.858856,390.434387 
	C455.876312,388.329132 459.896515,388.606537 463.895996,390.376678 
	C465.995392,391.305817 468.016937,392.410889 470.498169,393.648193 
	C474.979828,384.675171 479.601074,376.044250 486.370392,368.120514 
	C479.560822,365.596252 472.894562,365.573517 466.475250,364.372314 
	C460.591431,363.271240 454.617584,362.606934 448.779266,361.316467 
	C438.588776,359.063995 433.234314,352.401215 433.725433,342.049377 
	C434.276855,330.427032 435.388672,318.829956 436.340546,307.228760 
	C436.611267,303.929230 436.946075,300.656281 436.466705,297.142700 
	C432.402313,296.729431 428.778961,298.592560 424.943085,298.063507 
	C417.991638,297.104706 411.878815,294.367035 406.311157,290.166260 
	C400.293060,285.625641 399.771179,285.767029 395.061707,291.421509 
	C393.901367,292.814667 392.460815,293.974426 390.779816,295.426880 
M550.254700,211.335846 
	C547.878174,209.165161 545.196045,206.654953 545.352356,203.497208 
	C545.695740,196.561203 541.523621,194.227707 536.049805,192.578293 
	C533.663879,191.859344 531.395874,190.749023 529.010010,190.029846 
	C512.210144,184.965652 494.748596,183.391693 477.550934,180.443924 
	C472.632782,179.600922 469.839447,182.217392 469.394562,187.596970 
	C467.927551,205.336121 466.636780,223.089752 465.207397,240.832123 
	C463.698029,259.567261 462.052917,278.291534 460.569305,297.028656 
	C459.374817,312.113922 458.204834,327.203430 457.286133,342.307037 
	C456.922089,348.291779 459.029297,349.807373 464.914673,348.227203 
	C468.599579,347.237854 472.417572,346.557892 475.554688,348.729553 
	C481.040192,352.526917 487.193390,353.257141 493.469604,354.247620 
	C497.745392,354.922394 502.118713,354.434509 506.326416,355.794586 
	C512.840332,357.900208 518.219604,356.101135 523.073853,351.205048 
	C528.540710,345.691040 534.927795,341.641266 543.048035,340.843628 
	C547.324768,340.423553 551.637390,339.570038 554.654663,335.830017 
	C555.894226,334.293549 557.700012,334.242096 559.669312,334.357086 
	C571.031921,335.020569 575.054932,331.701630 576.918945,320.521942 
	C577.632019,316.244843 578.061096,311.968689 578.162781,307.618774 
	C578.500854,293.158844 578.618652,278.692078 579.749451,264.253723 
	C580.134949,259.332062 580.774292,254.153381 577.823486,249.654602 
	C575.223511,245.690643 573.723877,241.328613 572.403198,236.842178 
	C568.993530,225.259735 562.482544,216.299225 550.254700,211.335846 
M599.200073,188.069855 
	C601.342590,189.534210 602.119568,191.618073 601.912231,194.126770 
	C600.431519,212.039185 598.922668,229.949280 597.465698,247.863632 
	C596.022339,265.611145 594.655090,283.364868 593.207214,301.112000 
	C591.678101,319.855530 590.079651,338.593384 588.554626,357.337250 
	C588.414429,359.060760 587.658752,361.000366 589.551392,362.408752 
	C592.554443,362.097290 592.587891,359.854370 592.765320,357.656311 
	C593.608093,347.212097 594.421814,336.764862 595.389221,326.332031 
	C595.539368,324.712128 595.221619,321.977417 597.865173,322.238129 
	C600.568115,322.504730 600.152710,325.157623 600.023438,327.067932 
	C599.697693,331.880585 599.100952,336.674622 598.758789,341.486511 
	C598.365784,347.014191 598.129822,352.553070 597.820435,358.180450 
	C600.996887,357.944855 601.592529,356.426788 601.722595,354.373596 
	C602.017029,349.724487 602.387329,345.079803 602.768372,340.436707 
	C603.544128,330.982941 604.273621,321.524048 605.212524,312.086212 
	C605.367737,310.525848 605.291016,307.806274 608.044678,308.339844 
	C610.019775,308.722565 609.928711,310.830444 609.791748,312.516937 
	C609.023926,321.970093 607.924316,331.409454 607.564148,340.877319 
	C607.369934,345.983917 605.336975,351.162903 607.005188,356.755707 
	C610.998840,355.341705 610.517639,352.476593 610.723083,349.921509 
	C611.949951,334.664154 613.039307,319.393188 614.519897,304.160309 
	C615.002075,299.199219 614.467834,295.727661 608.787659,294.616180 
	C605.233582,293.920746 602.369751,291.884338 603.465942,287.656555 
	C604.570190,283.397827 608.004700,283.173981 611.501099,284.239197 
	C614.601074,285.183563 615.888733,283.995544 616.182190,281.074738 
	C616.364990,279.256195 616.551758,277.437592 616.700012,275.616058 
	C617.941040,260.362061 619.192871,245.108856 620.403748,229.852432 
	C621.878174,211.275421 623.229675,192.688049 624.835632,174.122559 
	C625.199890,169.911880 623.792847,168.040207 619.623352,167.531845 
	C609.222229,166.263733 598.851318,164.747940 588.466858,163.342514 
	C564.894287,160.152283 541.319519,156.978378 517.748352,153.777893 
	C507.201477,152.345840 496.677429,150.725632 486.107391,149.497238 
	C483.132111,149.151489 479.597046,148.157990 477.096466,151.371017 
	C478.118469,152.714493 479.345490,152.644135 480.473724,152.801834 
	C496.951385,155.104919 513.426636,157.425507 529.908813,159.695679 
	C557.934631,163.555878 585.952454,167.480179 614.005127,171.135300 
	C619.032410,171.790314 620.846436,173.708542 620.392822,178.816513 
	C618.847229,196.221329 617.631775,213.655319 616.238525,231.074036 
	C616.063965,233.256073 616.707092,236.759399 613.688110,236.667633 
	C610.354492,236.566269 611.640930,232.980286 611.774353,230.987244 
	C612.863037,214.720627 614.009094,198.453979 615.504333,182.221115 
	C615.889404,178.041321 614.973145,176.000717 610.666138,175.556732 
	C605.042175,174.976974 599.446655,174.115906 593.842896,173.346451 
	C565.825989,169.499481 537.813171,165.622864 509.793091,161.799332 
	C498.260925,160.225708 486.723602,158.680725 475.168579,157.289246 
	C471.472717,156.844193 467.808868,157.351196 464.816833,159.959137 
	C463.117767,161.440140 461.783905,163.188644 462.431458,165.611984 
	C463.050232,167.927567 465.053955,168.403763 467.097961,168.691635 
	C498.069702,173.053864 529.050110,177.355942 560.009460,181.804321 
	C572.848083,183.649048 585.775146,184.939896 599.200073,188.069855 
M404.925934,276.994049 
	C407.522919,275.944061 409.532410,274.292114 410.209442,271.454865 
	C410.905457,268.537964 408.324860,265.646576 405.824188,266.445709 
	C403.492157,267.190948 402.364868,275.255157 404.925934,276.994049 
M450.044769,303.616821 
	C450.051147,307.169861 449.443970,310.795135 451.289093,315.632751 
	C453.098907,307.618958 453.124817,301.034515 452.273529,294.373505 
	C450.052063,296.845062 450.253174,299.813843 450.044769,303.616821 
M458.652557,196.049103 
	C459.019958,196.764328 459.270966,197.617035 460.656342,197.464844 
	C460.790863,194.567337 463.051666,191.542862 459.862762,188.341110 
	C457.388214,190.583908 458.127319,193.033630 458.652557,196.049103 
z"/>
<path fill="#c4530f" opacity="1.000000" stroke="none" 
	d="
M384.643585,241.401901 
	C385.447510,236.337387 383.219727,232.708054 380.683105,229.122421 
	C377.471436,224.582672 375.683563,219.711761 378.334381,214.251526 
	C379.400269,212.055984 380.506927,209.740738 384.227478,209.294144 
	C382.255798,216.717819 386.468903,221.925522 389.832611,227.634613 
	C393.795502,234.360733 391.579437,241.174973 384.800201,245.392410 
	C383.339386,244.271698 384.671173,242.987946 384.643585,241.401901 
z"/>
<path fill="#c4530f" opacity="1.000000" stroke="none" 
	d="
M372.784912,227.156464 
	C374.481506,230.040787 376.297211,232.469009 377.476562,235.174606 
	C379.864502,240.652817 377.492828,246.598297 371.091827,249.114426 
	C374.746063,241.783188 369.791779,237.456482 367.051758,232.296585 
	C364.128876,226.792221 366.047913,221.150436 371.539276,218.586166 
	C371.725494,221.421951 371.157654,224.296432 372.784912,227.156464 
z"/>
<path fill="#c4530f" opacity="1.000000" stroke="none" 
	d="
M524.299316,272.526337 
	C529.751465,272.653839 534.641113,271.811462 539.528809,270.786224 
	C545.495483,269.534607 548.083008,272.470947 546.350281,278.339935 
	C543.211609,288.971039 530.324768,297.209747 519.064331,295.784180 
	C505.878754,294.114868 495.165741,283.577637 494.765076,271.883545 
	C494.600372,267.076508 497.311829,264.962891 501.744049,267.033691 
	C508.799347,270.329987 516.226440,271.742004 524.299316,272.526337 
M527.961609,289.765778 
	C530.270020,288.667877 533.011047,288.130035 534.074341,285.352661 
	C528.059204,279.803955 516.426697,281.011047 511.213318,287.896240 
	C516.196716,291.740631 521.661011,291.122803 527.961609,289.765778 
z"/>
<path fill="#c4530f" opacity="1.000000" stroke="none" 
	d="
M544.143921,256.232422 
	C540.241211,257.918060 538.917297,256.489960 538.722046,252.946259 
	C538.343689,246.077301 541.207642,240.306442 546.378540,237.971069 
	C550.950928,235.906006 556.429504,236.891113 560.250427,240.465332 
	C564.282959,244.237656 565.473267,251.333923 563.302002,257.178955 
	C561.992554,260.704163 560.079224,260.273163 557.586914,258.589661 
	C553.610840,255.904007 549.442078,254.013947 544.143921,256.232422 
M549.894958,247.110535 
	C551.185852,245.341965 551.058838,243.697693 549.268738,242.405746 
	C548.079834,241.547638 546.758911,241.598450 545.661926,242.674911 
	C544.641357,243.676468 544.195251,244.899475 544.873657,246.265823 
	C545.893555,248.319946 547.479797,248.577988 549.894958,247.110535 
z"/>
<path fill="#c4530f" opacity="1.000000" stroke="none" 
	d="
M501.336609,251.459778 
	C496.904999,248.691711 492.510345,248.573654 488.116425,250.173569 
	C484.240662,251.584854 482.980103,250.070740 482.848572,246.383911 
	C482.562988,238.378433 487.252533,231.515121 493.763245,230.739578 
	C498.781342,230.141830 502.998901,231.669907 505.817474,236.012085 
	C509.057739,241.003738 509.140228,246.450485 506.915649,251.737915 
	C505.546326,254.992584 503.416443,252.684448 501.336609,251.459778 
M490.425903,241.310059 
	C492.504089,242.036087 494.078583,241.544891 494.673126,239.299332 
	C495.041992,237.906143 494.592163,236.660324 493.261475,235.890518 
	C492.145660,235.245026 491.010986,235.222946 490.039490,236.121353 
	C488.403412,237.634323 488.393860,239.261642 490.425903,241.310059 
z"/>
<path fill="#c4530f" opacity="1.000000" stroke="none" 
	d="
M605.434570,257.208740 
	C605.081360,259.338928 605.685608,261.979279 603.110413,261.879761 
	C600.316223,261.771820 600.753296,259.082825 600.904785,257.200867 
	C602.371582,238.978363 603.920105,220.762451 605.437683,202.544022 
	C605.837585,197.741852 606.102600,192.925430 606.634521,188.138336 
	C606.983704,184.995041 605.233887,183.944611 602.670288,183.582291 
	C587.697083,181.466019 572.715698,179.407608 557.742432,177.291504 
	C550.336182,176.244797 542.931274,175.179016 535.549255,173.977524 
	C533.875793,173.705154 531.335083,173.577087 531.663818,171.068527 
	C532.010071,168.425964 534.349365,169.259552 536.098389,169.500580 
	C559.157532,172.678314 582.207581,175.922928 605.278503,179.012421 
	C609.731873,179.608795 611.693481,181.520844 611.294128,186.190567 
	C609.693237,204.907944 608.282776,223.641541 606.777100,242.367142 
	C606.390808,247.171051 605.913879,251.967651 605.434570,257.208740 
z"/>
</svg>